# xmcd
#
# Track frame offsets:
# 150
# 48602
# 78112
# 97477
# 134837
# 154427
#
# Disc length: 2531 seconds
#
#
# Revision: 1
# Processed by: cddbd v1.5.2PL0 Copyright (c) Steve Scherf et al.
# Submitted via: FreeRIP 2.951 
#
DISCID=5709e106
DTITLE=Jan Allan - Jan Allan-70
DYEAR=1968
DGENRE=Jazz
TTITLE0=Polska With Trumpet
TTITLE1=Debalira
TTITLE2=Ballad for Trumpet
TTITLE3=Rapid
TTITLE4=Odin's Eyes
TTITLE5=Rolf Billberg In Memoriam
EXTD=00844
EXTT0=
EXTT1=
EXTT2=
EXTT3=
EXTT4=
EXTT5=
PLAYORDER=
